<svg width="24" height="24" viewBox="0 0 24 24">
  <path d="M20.4488 20.4492H16.8927V14.8801C16.8927 13.5521 16.869 11.8425 15.0431 11.8425C13.1909 11.8425 12.9075 13.2894 12.9075 14.7834V20.4488H9.35136V8.99648H12.7653V10.5616H12.8131C13.1547 9.97741 13.6484 9.49685 14.2416 9.17108C14.8348 8.84531 15.5052 8.68652 16.1815 8.71162C19.7858 8.71162 20.4503 11.0824 20.4503 14.1666L20.4488 20.4492ZM5.33883 7.43103C4.93067 7.4311 4.53164 7.31014 4.19223 7.08344C3.85282 6.85674 3.58827 6.53448 3.43201 6.15742C3.27575 5.78036 3.23479 5.36542 3.31435 4.96509C3.3939 4.56476 3.59039 4.19701 3.87895 3.90835C4.16751 3.61969 4.53519 3.42307 4.9355 3.34337C5.3358 3.26367 5.75074 3.30447 6.12786 3.46059C6.50497 3.61672 6.82732 3.88117 7.05414 4.2205C7.28097 4.55983 7.40208 4.95881 7.40215 5.36697C7.4022 5.63797 7.34886 5.90634 7.2452 6.15673C7.14153 6.40713 6.98958 6.63466 6.79798 6.82632C6.60638 7.01799 6.37889 7.17004 6.12853 7.27379C5.87817 7.37755 5.60984 7.43098 5.33883 7.43103ZM7.11691 20.4492H3.55704V8.99648H7.11691V20.4492ZM22.2217 0.00122317H1.77007C1.30588 -0.00401527 0.85857 0.175251 0.526481 0.49963C0.194392 0.824009 0.00468869 1.26696 -0.000976562 1.73115V22.2677C0.00449479 22.7321 0.194087 23.1753 0.526165 23.5001C0.858242 23.8248 1.30565 24.0044 1.77007 23.9994H22.2217C22.6871 24.0053 23.1357 23.8262 23.4691 23.5015C23.8025 23.1768 23.9934 22.733 23.9998 22.2677V1.72967C23.9932 1.26456 23.8022 0.821103 23.4688 0.496732C23.1354 0.172361 22.6869 -0.00639342 22.2217 -0.000259166" />
</svg>
